<?xml version="1.0" standalone="no"?>
<!DOCTYPE svg PUBLIC "-//W3C//DTD SVG 20010904//EN"
 "http://www.w3.org/TR/2001/REC-SVG-20010904/DTD/svg10.dtd">
<svg version="1.0" xmlns="http://www.w3.org/2000/svg"
 width="250.000000pt" height="250.000000pt" viewBox="0 0 250.000000 250.000000"
 preserveAspectRatio="xMidYMid meet">
<metadata>
Created by potrace 1.14, written by Peter Selinger 2001-2017
</metadata>
<g transform="translate(0.000000,250.000000) scale(0.100000,-0.100000)"
fill="#000000" stroke="none">
<path d="M1075 2177 c-93 -51 -199 -109 -235 -129 -36 -19 -119 -65 -185 -100
-66 -36 -151 -83 -190 -104 -38 -21 -100 -54 -136 -73 -270 -147 -319 -175
-319 -180 0 -3 114 -68 253 -144 138 -75 286 -156 327 -178 41 -23 206 -113
367 -201 l292 -159 68 37 c138 76 190 103 258 140 39 20 75 40 80 44 6 4 46
26 90 50 126 68 207 112 243 132 19 10 73 40 120 65 48 25 104 57 125 70 l37
23 1 -22 c0 -13 1 -190 1 -394 l0 -371 114 0 114 0 -2 454 -3 455 -90 50 c-49
28 -121 67 -160 88 -58 31 -459 250 -660 360 -186 102 -332 180 -336 180 -2 0
-80 -42 -174 -93z"/>
<path d="M455 890 c0 -135 4 -223 10 -229 6 -6 76 -46 155 -89 80 -44 161 -88
180 -99 19 -11 80 -43 135 -73 55 -29 105 -56 110 -60 6 -4 54 -31 108 -59
l98 -52 192 104 c106 58 228 124 272 147 44 24 85 46 90 50 10 8 147 82 197
107 15 8 31 20 35 26 5 7 8 110 8 229 0 250 11 233 -103 169 -101 -57 -429
-236 -592 -324 -41 -22 -79 -44 -84 -48 -10 -9 -95 34 -360 181 -245 135 -441
240 -448 240 -2 0 -4 -99 -3 -220z"/>
</g>
</svg>
